# xmcd CD database file
#
# Track frame offsets:
#	150
#	11890
#	25090
#
# Disc length: 603 seconds
#
# Revision: 0
# Processed by: cddbd v1.5PL3 Copyright (c) Steve Scherf et al.
# Submitted via: CDex 1.51
#
DISCID=1a025903
DTITLE=山本正之 - 涙のカレーライス
DYEAR=1994
DGENRE=JPop
TTITLE0=涙のカレーライス
TTITLE1=笑顔のハヤシライス
TTITLE2=想い出のオムライス
EXTD=YEAR: 1994
EXTT0=
EXTT1=
EXTT2=
PLAYORDER=
